<?xml version="1.0" encoding="utf-8"?>
<!-- Generator: Adobe Illustrator 24.1.2, SVG Export Plug-In . SVG Version: 6.00 Build 0)  -->
<svg version="1.1" xmlns="http://www.w3.org/2000/svg" xmlns:xlink="http://www.w3.org/1999/xlink" x="0px" y="0px"
	 viewBox="0 0 100 100" style="enable-background:new 0 0 100 100;" xml:space="preserve">
<circle class="st0" cx="50" cy="50" r="50"/>
<path class="st1" d="M33.3,26.8c1.4-0.6,3-0.9,4.5-0.9h24.4c1.6,0,3.1,0.3,4.5,0.9c1.4,0.6,2.8,1.5,3.9,2.6c1.1,1.1,2,2.4,2.6,3.9
	c0.6,1.4,0.9,3,0.9,4.5v24.4c0,1.6-0.3,3.1-0.9,4.6c-0.6,1.4-1.5,2.8-2.6,3.9c-1.1,1.1-2.4,2-3.9,2.6c-1.4,0.6-3,0.9-4.6,0.9H37.8
	c-1.6,0-3.1-0.3-4.6-0.9c-1.4-0.6-2.8-1.5-3.9-2.6c-1.1-1.1-2-2.4-2.6-3.9c-0.6-1.4-0.9-3-0.9-4.6V37.8c0-1.6,0.3-3.1,0.9-4.5
	c0.6-1.4,1.5-2.8,2.6-3.9C30.5,28.3,31.8,27.4,33.3,26.8z M41.3,63c2.6,1.7,5.6,2.6,8.7,2.6c4.1,0,8.1-1.6,11-4.6
	c2.9-2.9,4.6-6.9,4.6-11c0-3.1-0.9-6.1-2.6-8.7c-1.7-2.6-4.1-4.6-7-5.7c-2.8-1.2-6-1.5-9-0.9c-3,0.6-5.8,2.1-8,4.3
	c-2.2,2.2-3.7,5-4.3,8c-0.6,3-0.3,6.2,0.9,9C36.8,58.8,38.8,61.2,41.3,63z M63.5,37.6c0.6,0.4,1.4,0.6,2.1,0.6c1,0,2-0.4,2.7-1.1
	c0.7-0.7,1.1-1.7,1.1-2.7c0-0.8-0.2-1.5-0.6-2.1c-0.4-0.6-1-1.1-1.7-1.4c-0.7-0.3-1.5-0.4-2.2-0.2c-0.7,0.1-1.4,0.5-2,1
	c-0.5,0.5-0.9,1.2-1,2c-0.1,0.7-0.1,1.5,0.2,2.2C62.4,36.6,62.9,37.2,63.5,37.6z M44.7,42.1c1.6-1,3.4-1.6,5.3-1.6
	c2.5,0,5,1,6.7,2.8c1.8,1.8,2.8,4.2,2.8,6.7c0,1.9-0.6,3.7-1.6,5.3c-1,1.6-2.5,2.8-4.3,3.5c-1.7,0.7-3.7,0.9-5.5,0.5
	c-1.8-0.4-3.5-1.3-4.9-2.6s-2.2-3-2.6-4.9c-0.4-1.8-0.2-3.8,0.5-5.5C41.9,44.6,43.1,43.1,44.7,42.1z M74.9,74.9
	c3.4-3.4,5.3-7.9,5.3-12.7V37.8c0-4.8-1.9-9.3-5.3-12.7c-3.4-3.4-7.9-5.3-12.7-5.3H37.8c-4.8,0-9.3,1.9-12.7,5.3
	c-3.4,3.4-5.3,7.9-5.3,12.7v24.4c0,4.8,1.9,9.3,5.3,12.7c3.4,3.4,7.9,5.3,12.7,5.3h24.4C66.9,80.1,71.5,78.2,74.9,74.9z"/>
</svg>
